STARTFONT 2.1
FONT -Adobe-New Century Schoolbook-Bold-I-Normal--34-240-100-100-P-193-ISO8859-2
SIZE 24 100 100
FONTBOUNDINGBOX 45 39 -7 -7
COMMENT $XConsortium: ncenBI24.bdf,v 1.7 95/01/26 17:56:29 gildea Exp $
COMMENT 
COMMENT +
COMMENT  Copyright 1984-1989, 1994 Adobe Systems Incorporated.
COMMENT  Copyright 1988, 1994 Digital Equipment Corporation.
COMMENT
COMMENT  Adobe is a trademark of Adobe Systems Incorporated which may be
COMMENT  registered in certain jurisdictions.
COMMENT  Permission to use these trademarks is hereby granted only in
COMMENT  association with the images described in this file.
COMMENT
COMMENT  Permission to use, copy, modify, distribute and sell this software
COMMENT  and its documentation for any purpose and without fee is hereby
COMMENT  granted, provided that the above copyright notices appear in all
COMMENT  copies and that both those copyright notices and this permission
COMMENT  notice appear in supporting documentation, and that the names of
COMMENT  Adobe Systems and Digital Equipment Corporation not be used in
COMMENT  advertising or publicity pertaining to distribution of the software
COMMENT  without specific, written prior permission.  Adobe Systems and
COMMENT  Digital Equipment Corporation make no representations about the
COMMENT  suitability of this software for any purpose.  It is provided "as
COMMENT  is" without express or implied warranty.
COMMENT -
COMMENT  
COMMENT  Translation to ISO8859-2 by Cub Soft;  Petr.Kolar@vslib.cz
COMMENT  
STARTPROPERTIES 28
FOUNDRY "Adobe"
FAMILY_NAME "New Century Schoolbook"
WEIGHT_NAME "Bold"
SLANT "I"
SETWIDTH_NAME "Normal"
ADD_STYLE_NAME ""
PIXEL_SIZE 34
POINT_SIZE 240
RESOLUTION_X 100
RESOLUTION_Y 100
SPACING "P"
AVERAGE_WIDTH 193
CHARSET_REGISTRY "ISO8859"
CHARSET_ENCODING "2"
CAP_HEIGHT 25
X_HEIGHT 16
FONT_ASCENT 29
FONT_DESCENT 7
FACE_NAME "New Century Schoolbook Bold Italic"

STARTCHAR space
ENCODING 32
SWIDTH 287 0
DWIDTH 10 0
BBX 1 1 1 0
BITMAP
00
ENDCHAR
STARTCHAR exclam
ENCODING 33
SWIDTH 333 0
DWIDTH 11 0
BBX 11 25 0 0
BITMAP
03c0
07e0
07e0
07e0
07e0
07c0
07c0
0f80
0f80
0f00
0f00
0e00
0e00
1e00
1c00
1c00
1800
1800
0000
0000
7000
f800
f800
f800
7000
ENDCHAR
STARTCHAR quotedbl
ENCODING 34
SWIDTH 400 0
DWIDTH 13 0
BBX 13 11 1 14
BITMAP
3870
7cf8
7cf8
7cf8
78f0
78f0
f1e0
e1c0
e1c0
c180
c180
ENDCHAR
STARTCHAR numbersign
ENCODING 35
SWIDTH 606 0
DWIDTH 19 0
BBX 16 23 2 0
BITMAP
071c
071c
071c
071c
0618
0618
0618
7fff
7fff
0e38
0e38
0c30
0c30
fffe
fffe
1c70
1c70
1870
1860
1860
3860
38e0
38e0
ENDCHAR
STARTCHAR dollar
ENCODING 36
SWIDTH 574 0
DWIDTH 19 0
BBX 19 30 0 -4
BITMAP
000600
000c00
000c00
007e00
03ff80
0799c0
0f18e0
0e1be0
1e33e0
1e33e0
1f33c0
1ff000
0ff000
0ffc00
07fe00
01ff00
00ff80
30df80
78cf80
f98780
f98780
f18700
e30f00
731e00
1ff800
07c000
060000
060000
060000
040000
ENDCHAR
STARTCHAR percent
ENCODING 37
SWIDTH 889 0
DWIDTH 29 0
BBX 26 25 2 -1
BITMAP
00001800
03c03800
0f607000
1e3fe000
3c1e6000
7c10c000
7810c000
f8118000
f8310000
f0230000
f0660000
f0c60000
798c0f00
3f083d80
001878c0
0030f040
0031f040
0061e040
0063e0c0
00c3c080
0183c180
0183c300
0301e600
0300fc00
02000000
ENDCHAR
STARTCHAR ampersand
ENCODING 38
SWIDTH 889 0
DWIDTH 30 0
BBX 26 25 1 0
BITMAP
000f8000
003fe000
007cf000
00f87800
00f87800
00f87800
00f87800
00f8f000
00f9e000
00ffc000
00ff0000
01fc0000
07fc7fc0
0f7e7fc0
3e7e0f00
7c7e0e00
7c3f1c00
fc3f3800
fc1ff000
fc1fe000
fe0fc0c0
7f07e180
3fffff80
1ff9fe00
07c07800
ENDCHAR
STARTCHAR apostrophe
ENCODING 39
SWIDTH 259 0
DWIDTH 9 0
BBX 8 12 2 13
BITMAP
0e
1f
3f
3f
3f
1e
06
0c
18
30
60
c0
ENDCHAR
STARTCHAR parenleft
ENCODING 40
SWIDTH 407 0
DWIDTH 14 0
BBX 13 28 4 -4
BITMAP
0018
0070
01e0
0380
0780
0f00
0e00
1e00
3c00
3c00
7c00
7800
7800
f800
f800
f000
f000
f000
f000
7000
7000
7000
7000
3000
3800
1800
0c00
0c00
ENDCHAR
STARTCHAR parenright
ENCODING 41
SWIDTH 407 0
DWIDTH 14 0
BBX 12 28 -2 -4
BITMAP
0300
0300
0180
01c0
00c0
00e0
00e0
00e0
00f0
00f0
00f0
00f0
00f0
01f0
01f0
01e0
01e0
03e0
03c0
03c0
0780
0780
0f00
1e00
1c00
7800
e000
8000
ENDCHAR
STARTCHAR asterisk
ENCODING 42
SWIDTH 500 0
DWIDTH 17 0
BBX 15 15 1 9
BITMAP
00c0
01e0
39e0
3dc0
3dcc
1fbe
07fe
7ffc
ffc0
fbf0
6778
0778
0f38
0f00
0600
ENDCHAR
STARTCHAR plus
ENCODING 43
SWIDTH 606 0
DWIDTH 20 0
BBX 17 17 1 0
BITMAP
01c000
01c000
01c000
01c000
01c000
01c000
01c000
ffff80
ffff80
ffff80
01c000
01c000
01c000
01c000
01c000
01c000
01c000
ENDCHAR
STARTCHAR comma
ENCODING 44
SWIDTH 287 0
DWIDTH 9 0
BBX 8 12 -2 -6
BITMAP
0e
1f
3f
3f
3f
1e
06
0c
18
30
60
c0
ENDCHAR
STARTCHAR minus
ENCODING 45
SWIDTH 606 0
DWIDTH 20 0
BBX 17 3 1 7
BITMAP
ffff80
ffff80
ffff80
ENDCHAR
STARTCHAR period
ENCODING 46
SWIDTH 287 0
DWIDTH 9 0
BBX 6 5 0 0
BITMAP
78
fc
fc
fc
78
ENDCHAR
STARTCHAR slash
ENCODING 47
SWIDTH 278 0
DWIDTH 9 0
BBX 11 25 -1 0
BITMAP
00e0
01c0
01c0
01c0
0380
0380
0380
0700
0700
0700
0e00
0e00
0e00
1c00
1c00
1c00
3800
3800
3800
7000
7000
7000
e000
e000
e000
ENDCHAR
STARTCHAR zero
ENCODING 48
SWIDTH 574 0
DWIDTH 19 0
BBX 18 24 1 0
BITMAP
007800
01fe00
03cf00
078780
0f0780
1f07c0
3f07c0
3e07c0
7e07c0
7e0fc0
7e0fc0
7c0fc0
fc0fc0
fc0f80
fc1f80
fc1f80
f81f00
f83f00
f83e00
783c00
787c00
3cf800
1fe000
078000
ENDCHAR
STARTCHAR one
ENCODING 49
SWIDTH 574 0
DWIDTH 19 0
BBX 16 24 1 0
BITMAP
0007
000f
007e
07fe
07fe
007c
007c
00fc
00f8
00f8
00f8
01f8
01f0
01f0
01f0
03e0
03e0
03e0
07e0
07c0
07c0
0fc0
fffc
fffc
ENDCHAR
STARTCHAR two
ENCODING 50
SWIDTH 574 0
DWIDTH 19 0
BBX 20 24 -2 0
BITMAP
007f00
01ffc0
0387e0
0703f0
0603f0
0f81f0
0fc1f0
0fc3f0
0fc3e0
07c7e0
0387c0
000f80
001f00
003e00
007c00
00f000
01e060
038060
0e00c0
1c03c0
3fffc0
3fff80
7fff80
ffff00
ENDCHAR
STARTCHAR three
ENCODING 51
SWIDTH 574 0
DWIDTH 19 0
BBX 18 24 0 0
BITMAP
00fc00
03ff00
070f80
0e07c0
0f07c0
0f87c0
0f87c0
0f0fc0
000f80
001f00
007e00
03f000
03fc00
003e00
001f00
301f00
7c1f00
fc1f00
fc3f00
f83f00
703e00
70fc00
3ff800
0fc000
ENDCHAR
STARTCHAR four
ENCODING 52
SWIDTH 574 0
DWIDTH 19 0
BBX 19 24 -1 0
BITMAP
0000e0
0001e0
0003e0
0007e0
000fe0
001fc0
003fc0
0077c0
00ef80
01cf80
038f80
071f80
0e1f00
1c1f00
381f00
703f00
ffffe0
ffffe0
007e00
007c00
007c00
00fc00
0fff80
0fff80
ENDCHAR
STARTCHAR five
ENCODING 53
SWIDTH 574 0
DWIDTH 19 0
BBX 19 24 0 0
BITMAP
03ffe0
03ffe0
03ffc0
03ff80
067f00
060000
060000
060000
0c7c00
0dfe00
0fff00
1c3f00
381f80
101f80
000f80
000f80
780f80
f81f80
f81f00
f83f00
703e00
707c00
3ff800
0fc000
ENDCHAR
STARTCHAR six
ENCODING 54
SWIDTH 574 0
DWIDTH 19 0
BBX 18 24 1 0
BITMAP
003e00
01ff80
03e780
07c7c0
0f87c0
1f07c0
1f0380
3f0000
3e0000
7e0000
7ff800
7ffc00
fe3e00
fc1f00
fc1f00
fc1f00
f81f00
f81f00
f83f00
f83e00
783e00
787c00
3cf800
0fe000
ENDCHAR
STARTCHAR seven
ENCODING 55
SWIDTH 574 0
DWIDTH 19 0
BBX 18 25 3 0
BITMAP
180000
1fffc0
3fff80
3fff80
7fff00
7ffe00
780600
e00c00
c01c00
803800
007800
007000
00f000
01e000
03e000
03c000
07c000
0fc000
0f8000
1f8000
1f8000
3f8000
3f0000
3f0000
1e0000
ENDCHAR
STARTCHAR eight
ENCODING 56
SWIDTH 574 0
DWIDTH 19 0
BBX 19 24 0 0
BITMAP
007e00
01ff80
0383c0
0701c0
0f01e0
0f01e0
0f01e0
0f81c0
0fc3c0
0ff780
0ffe00
07fe00
07ff00
1eff80
3c3f80
781fc0
f00fc0
f007c0
f00780
f00780
f80f00
7c1e00
3ff800
07e000
ENDCHAR
STARTCHAR nine
ENCODING 57
SWIDTH 574 0
DWIDTH 19 0
BBX 18 24 0 0
BITMAP
007800
03fe00
078f00
0f8780
1f0780
1f07c0
3f07c0
3e07c0
3e07c0
3e0fc0
3e0fc0
3f1fc0
1f1fc0
0fff80
07ff80
001f80
001f00
703f00
f83e00
f87c00
f87800
f9f000
7fe000
1f0000
ENDCHAR
STARTCHAR colon
ENCODING 58
SWIDTH 287 0
DWIDTH 9 0
BBX 9 16 0 0
BITMAP
0f00
1f80
1f80
1f80
0f00
0000
0000
0000
0000
0000
0000
7800
fc00
fc00
fc00
7800
ENDCHAR
STARTCHAR semicolon
ENCODING 59
SWIDTH 287 0
DWIDTH 9 0
BBX 10 22 -2 -6
BITMAP
0780
0fc0
0fc0
0fc0
0780
0000
0000
0000
0000
0000
0e00
1f00
3f00
3f00
3f00
1e00
0600
0c00
1800
3000
6000
c000
ENDCHAR
STARTCHAR less
ENCODING 60
SWIDTH 606 0
DWIDTH 20 0
BBX 17 17 1 0
BITMAP
000180
000780
001f80
00ff00
03fc00
0fe000
7f8000
fe0000
f00000
fe0000
7f8000
0fe000
03fc00
00ff00
001f80
000780
000180
ENDCHAR
STARTCHAR equal
ENCODING 61
SWIDTH 606 0
DWIDTH 20 0
BBX 17 9 1 4
BITMAP
ffff80
ffff80
ffff80
000000
000000
000000
ffff80
ffff80
ffff80
ENDCHAR
STARTCHAR greater
ENCODING 62
SWIDTH 606 0
DWIDTH 20 0
BBX 17 17 1 0
BITMAP
c00000
f00000
fc0000
7f8000
1fe000
03f800
00ff00
003f80
000780
003f80
00ff00
03f800
1fe000
7f8000
fc0000
f00000
c00000
ENDCHAR
STARTCHAR question
ENCODING 63
SWIDTH 481 0
DWIDTH 16 0
BBX 12 25 3 0
BITMAP
0780
1fe0
38e0
3070
6070
60f0
43f0
07f0
0fe0
1fc0
3f80
3f00
7c00
7800
7180
3980
1f00
0000
0000
0000
7800
fc00
fc00
fc00
7800
ENDCHAR
STARTCHAR at
ENCODING 64
SWIDTH 747 0
DWIDTH 25 0
BBX 23 25 1 0
BITMAP
00ff00
03ffc0
0fc3f0
1e0078
3c003c
38001c
70100e
70fdee
e1e7ce
e3c7c6
c7c3c6
c787c6
c7878e
cf878e
cf078c
ef0f9c
e71f18
77bf30
73f7ec
38839c
3c003c
1f0078
0ff3f0
03ffc0
00ff00
ENDCHAR
STARTCHAR A
ENCODING 65
SWIDTH 741 0
DWIDTH 24 0
BBX 27 25 -3 0
BITMAP
00006000
0000f000
0001f000
0001f000
0003f000
0003f000
0007f800
000ff800
000df800
001df800
0019f800
0038fc00
0070fc00
0070fc00
00e0fc00
00e0fc00
01fffe00
01fffe00
03807e00
07007e00
0f007e00
0e003f00
3e003f00
ffc3ffe0
ffc3ffe0
ENDCHAR
STARTCHAR B
ENCODING 66
SWIDTH 759 0
DWIDTH 25 0
BBX 26 25 -2 0
BITMAP
07fff800
07ffff00
00fc3f80
00fc0fc0
00fc0fc0
00fc0fc0
01fc0fc0
01f80fc0
01f80fc0
01f81fc0
03f83f80
03ffff00
03fff800
03f0f800
07e07e00
07e03f00
07e03f80
0fe01f80
0fc03f80
0fc03f80
0fc03f80
1f807f00
1f80ff00
fffffc00
ffffe000
ENDCHAR
STARTCHAR C
ENCODING 67
SWIDTH 759 0
DWIDTH 24 0
BBX 24 25 1 0
BITMAP
001f81
00ffe3
01f877
07e01f
0fc01e
1f800e
3f800e
3f000e
7f000c
7f000c
7e0000
fe0000
fe0000
fe0000
fc0000
fc0000
fc0000
fc0000
fc0018
7e0030
7e0070
3f00e0
1fc3c0
0fff80
01fe00
ENDCHAR
STARTCHAR D
ENCODING 68
SWIDTH 833 0
DWIDTH 27 0
BBX 28 25 -2 0
BITMAP
07fff800
07ffff00
00fe1f80
00fc07c0
00fc07e0
00fc03e0
01f803f0
01f803f0
01f803f0
01f003f0
03f003f0
03f007f0
03f007f0
07e007f0
07e007e0
07e00fe0
07e00fe0
0fc00fc0
0fc01fc0
0fc01f80
0fc03f00
1f807e00
1f81fc00
fffff000
ffff0000
ENDCHAR
STARTCHAR E
ENCODING 69
SWIDTH 741 0
DWIDTH 24 0
BBX 26 25 -1 0
BITMAP
07ffffc0
07ffffc0
00fc0fc0
00fc0780
00fc0380
01f80380
01f80380
01f83300
01f87300
03f06000
03f1e000
03ffe000
03ffe000
07e3c000
07e1c000
07e1c000
07e1c300
0fc18700
0fc18600
0fc00e00
0fc01e00
0f803c00
1f80fc00
fffffc00
fffffc00
ENDCHAR
STARTCHAR F
ENCODING 70
SWIDTH 704 0
DWIDTH 23 0
BBX 26 25 -1 0
BITMAP
07ffffc0
07ffffc0
00fe0fc0
00fc0780
00fc0380
00fc0380
01f80380
01f83300
01f83300
01f87000
03f1e000
03ffe000
03ffe000
03e3c000
07e1c000
07e1c000
07e1c000
0fc18000
0fc18000
0fc00000
0fc00000
1f800000
1f800000
fff80000
fff80000
ENDCHAR
STARTCHAR G
ENCODING 71
SWIDTH 815 0
DWIDTH 25 0
BBX 25 25 0 0
BITMAP
000f8080
007ff180
01f83f80
03f01f80
07e00f00
0fc00f00
1f800f00
3f800600
3f000600
7f000600
7f000600
fe000000
fe000000
fe000000
fe07ff80
fc07ff80
fc00fc00
fc00fc00
fc00fc00
7c00f800
7e01f800
3e03f800
1f87b000
07ff3000
00f83000
ENDCHAR
STARTCHAR H
ENCODING 72
SWIDTH 870 0
DWIDTH 29 0
BBX 31 25 -1 0
BITMAP
07ff9ffe
07ff9ffe
00fc03f0
00fc03f0
00f803f0
01f807e0
01f807e0
01f807e0
01f807c0
03f00fc0
03f00fc0
03ffffc0
03ffff80
07e01f80
07e01f80
07e01f80
07e01f00
0fc03f00
0fc03f00
0fc03f00
0f803e00
1f807e00
1f807e00
fff3ffc0
fff3ffc0
ENDCHAR
STARTCHAR I
ENCODING 73
SWIDTH 444 0
DWIDTH 15 0
BBX 17 25 -1 0
BITMAP
07ff80
07ff80
00fc00
00fc00
00fc00
01f800
01f800
01f800
01f800
03f000
03f000
03f000
03f000
07e000
07e000
07e000
0fc000
0fc000
0fc000
0fc000
1f8000
1f8000
1fc000
fff000
fff000
ENDCHAR
STARTCHAR J
ENCODING 74
SWIDTH 667 0
DWIDTH 21 0
BBX 24 25 -1 0
BITMAP
001fff
001fff
0001f8
0001f8
0003f0
0003f0
0003f0
0003f0
0007e0
0007e0
0007e0
0007e0
000fc0
000fc0
3c0fc0
7e0fc0
fe1f80
fe1f80
fe1f80
dc3f00
c03f00
e07e00
70fe00
3ff800
0fe000
ENDCHAR
STARTCHAR K
ENCODING 75
SWIDTH 778 0
DWIDTH 26 0
BBX 29 25 -1 0
BITMAP
07ff9ff8
07ff9ff8
00fe07c0
00fc0780
00fc0e00
01f81c00
01f83800
01f87000
01f8e000
03f1c000
03f3c000
03f7c000
03ffe000
07ffe000
07fbf000
07f3f000
07e3f800
0fc1f800
0fc1fc00
0fc0fc00
0f80fc00
1f807e00
1f807f00
fff3ffc0
fff3ffc0
ENDCHAR
STARTCHAR L
ENCODING 76
SWIDTH 704 0
DWIDTH 22 0
BBX 24 25 -1 0
BITMAP
07ffc0
07ffc0
00fc00
00fc00
00fc00
01f800
01f800
01f800
01f800
03f000
03f000
03f000
03f000
07e000
07e000
07e000
07e003
0fc006
0fc00e
0fc00e
0fc01c
1f803c
1f80fc
fffff8
fffff8
ENDCHAR
STARTCHAR M
ENCODING 77
SWIDTH 944 0
DWIDTH 31 0
BBX 34 25 -1 0
BITMAP
0ffe007fc0
0ffe00ffc0
01fe00fe00
01fe01fe00
01fe03fe00
01fe03fc00
01be077c00
03be06fc00
033e0ef800
033e1df800
033e19f800
073e39f800
063e31f000
063e73f000
0e3e63f000
0e3fc3f000
0c3fc3e000
0c3f87e000
1c3f87e000
1c3f07e000
183e0fc000
383e0fc000
781c1fc000
fe1c7ff800
fe187ff800
ENDCHAR
STARTCHAR N
ENCODING 78
SWIDTH 852 0
DWIDTH 28 0
BBX 33 25 -2 0
BITMAP
07fc01ff80
07fe01ff80
007e003c00
007f003800
007f003800
00ff803800
00df803000
00dfc03000
00cfc03000
01cfe07000
0187e06000
0187f06000
0183f0e000
0383f8c000
0301f8c000
0300fcc000
0700ffc000
06007f8000
06007f8000
06003f8000
0e003f8000
0e001f0000
1f001f0000
ffc00f0000
ffc00f0000
ENDCHAR
STARTCHAR O
ENCODING 79
SWIDTH 833 0
DWIDTH 27 0
BBX 26 25 0 0
BITMAP
000fc000
007ff800
01fc3e00
03f01f00
07e01f00
0fc00f80
1f800f80
3f800fc0
3f000fc0
7f000fc0
7f001fc0
fe001fc0
fe001fc0
fe001fc0
fc003f80
fc003f80
fc003f00
fc007f00
7c007e00
7c00fc00
7e01fc00
3e03f000
1f0fe000
07ff8000
00fc0000
ENDCHAR
STARTCHAR P
ENCODING 80
SWIDTH 741 0
DWIDTH 24 0
BBX 25 25 -1 0
BITMAP
07fff000
07fffc00
00fc3f00
00fc1f00
00f80f80
01f80f80
01f80f80
01f80f80
01f01f80
03f01f80
03f03f00
03f07f00
03e1fe00
07fffc00
07ffe000
07e00000
07c00000
0fc00000
0fc00000
0fc00000
0f800000
1f800000
1f800000
fff00000
fff00000
ENDCHAR
STARTCHAR Q
ENCODING 81
SWIDTH 833 0
DWIDTH 27 0
BBX 26 31 0 -6
BITMAP
000fc000
007ff800
01fc3e00
03f01f00
0fe01f00
0fc00f80
1f800f80
3f800fc0
3f000fc0
7f000fc0
7f000fc0
fe001fc0
fe001fc0
fe001fc0
fc001f80
fc383f80
fcfe3f00
fddf7f00
7f0fff00
7e07fe00
7e07fc00
3e07f800
1f8fe000
07ffc000
00ffc000
000fc000
000fe200
000fe600
0007fc00
0007f800
0001e000
ENDCHAR
STARTCHAR R
ENCODING 82
SWIDTH 796 0
DWIDTH 26 0
BBX 26 25 -1 0
BITMAP
07fff800
07ffff00
00fc3f80
00fc1f80
00fc0fc0
01f80fc0
01f80fc0
01f80fc0
01f81fc0
03f01f80
03f03f00
03f07e00
03fff800
07ff8000
07e1e000
07e1f000
07e1f800
0fc1f800
0fc1f800
0fc1f800
1f81f8c0
1f81f8c0
1f80fd80
fff0ff00
fff07e00
ENDCHAR
STARTCHAR S
ENCODING 83
SWIDTH 685 0
DWIDTH 22 0
BBX 22 25 -1 0
BITMAP
007e00
01ffcc
03c1fc
07807c
07003c
0f0038
0f0038
0f8018
0fe018
0ff800
0fff00
07ffc0
03ffe0
01ffe0
007ff0
300ff0
3003f0
3001f0
7000f0
7800f0
7801f0
7c01e0
ff03c0
c7ff00
c0fc00
ENDCHAR
STARTCHAR T
ENCODING 84
SWIDTH 722 0
DWIDTH 23 0
BBX 23 25 1 0
BITMAP
3ffffe
3ffffe
7c7e3e
787e1e
707e0e
60fc0e
e0fc0c
c0fc0c
c0fc0c
c1f80c
01f800
01f800
01f800
03f000
03f000
03f000
07e000
07e000
07e000
07e000
0fc000
0fc000
0fc000
fff800
fff800
ENDCHAR
STARTCHAR U
ENCODING 85
SWIDTH 833 0
DWIDTH 27 0
BBX 27 25 2 0
BITMAP
7ff83fe0
7ff83fe0
1fc00f80
1fc00700
1f800600
1f800600
1f800e00
3f000c00
3f000c00
3f000c00
3f001c00
7e001800
7e001800
7e003800
7e003000
fc003000
fc003000
fc007000
fc006000
fc00e000
7c00c000
7e01c000
3f078000
1fff0000
07f80000
ENDCHAR
STARTCHAR V
ENCODING 86
SWIDTH 741 0
DWIDTH 24 0
BBX 26 25 0 0
BITMAP
fff0ffc0
fff0ffc0
1f801f00
1f801e00
0f801c00
0fc03800
0fc03800
0fc07000
0fc06000
0fc0e000
07c0c000
07e1c000
07e18000
07e38000
07e70000
03e60000
03fe0000
03fc0000
03fc0000
03f80000
01f80000
01f00000
01e00000
01e00000
01c00000
ENDCHAR
STARTCHAR W
ENCODING 87
SWIDTH 944 0
DWIDTH 30 0
BBX 32 25 0 0
BITMAP
ffcffcff
ffcffcff
3f03f03c
3f01f038
1f01f030
1f03f070
1f03f060
1f07f060
1f87f0e0
1f86f0c0
0f8cf8c0
0f8cf980
0f9cf980
0fd8fb80
0ff8ff00
0ff0ff00
0ff0fe00
07e07e00
07e07e00
07c07c00
07c07c00
07807800
07807800
07807000
03003000
ENDCHAR
STARTCHAR X
ENCODING 88
SWIDTH 741 0
DWIDTH 25 0
BBX 30 25 -3 0
BITMAP
07ff9ffc
07ff9ff8
00fc07e0
00fe0780
007e0700
007e0e00
003f1c00
003f3800
003ff000
001fe000
001fc000
000fc000
000fc000
000fe000
001fe000
003ff000
0073f000
00e3f000
01c1f800
0381f800
0701fc00
0f00fc00
3f00fe00
ffe7ffc0
ffe7ffc0
ENDCHAR
STARTCHAR Y
ENCODING 89
SWIDTH 704 0
DWIDTH 23 0
BBX 25 25 1 0
BITMAP
fff1ff80
fff1ff80
3f803e00
1f803800
1f807000
0fc07000
0fc0e000
0fc1c000
07e18000
07e38000
03f70000
03fe0000
03fc0000
01fc0000
01f80000
01f80000
03f00000
03f00000
03f00000
03f00000
07e00000
07e00000
07e00000
7ffe0000
7ffe0000
ENDCHAR
STARTCHAR Z
ENCODING 90
SWIDTH 704 0
DWIDTH 23 0
BBX 25 25 -1 0
BITMAP
07ffff80
07ffff00
07e07f00
0f80fe00
0f01fc00
0e03fc00
1c07f800
1807f000
180fe000
001fc000
003f8000
007f8000
007f0000
00fe0000
01fc0000
03f80000
07f80600
07f00c00
0fe01c00
1fc03c00
3f807800
7f81f800
7f07f800
fffff000
fffff000
ENDCHAR
STARTCHAR bracketleft
ENCODING 91
SWIDTH 407 0
DWIDTH 14 0
BBX 15 28 0 -3
BITMAP
01fe
01e0
03e0
03c0
03c0
03c0
07c0
0780
0780
0780
0f00
0f00
0f00
0f00
1e00
1e00
1e00
3e00
3c00
3c00
3c00
7c00
7800
7800
7800
f800
f000
ff00
ENDCHAR
STARTCHAR backslash
ENCODING 92
SWIDTH 606 0
DWIDTH 20 0
BBX 15 25 3 0
BITMAP
e000
7000
7000
3800
3800
1c00
1c00
0e00
0e00
0700
0700
0380
0380
01c0
01c0
00e0
00e0
0070
0070
0078
0038
003c
001c
001e
000e
ENDCHAR
STARTCHAR bracketright
ENCODING 93
SWIDTH 407 0
DWIDTH 14 0
BBX 15 28 -1 -3
BITMAP
01fe
001e
003e
003c
003c
003c
007c
0078
0078
0078
00f8
00f0
00f0
00f0
01e0
01e0
01e0
03e0
03c0
03c0
03c0
07c0
0780
0780
0780
0f80
0f00
ff00
ENDCHAR
STARTCHAR asciicircum
ENCODING 94
SWIDTH 606 0
DWIDTH 20 0
BBX 17 13 2 12
BITMAP
01c000
03e000
03e000
07f000
0f7800
0e3800
1e3c00
1c1c00
3c1e00
380e00
780f00
700700
f00780
ENDCHAR
STARTCHAR underscore
ENCODING 95
SWIDTH 500 0
DWIDTH 16 0
BBX 16 2 0 -4
BITMAP
ffff
ffff
ENDCHAR
STARTCHAR grave
ENCODING 96
SWIDTH 333 0
DWIDTH 11 0
BBX 7 6 2 17
BITMAP
60
f0
f8
7c
1e
06
ENDCHAR
STARTCHAR a
ENCODING 97
SWIDTH 667 0
DWIDTH 21 0
BBX 20 16 0 0
BITMAP
01e3e0
07fbe0
1f8fe0
3f0fc0
3e0fc0
7e0fc0
7c0f80
fc0f80
fc0f80
f81f80
f81f10
f83f30
fc3f70
7cffe0
7fdfc0
1f0f00
ENDCHAR
STARTCHAR b
ENCODING 98
SWIDTH 611 0
DWIDTH 18 0
BBX 17 25 0 0
BITMAP
03c000
1fc000
07c000
07c000
0f8000
0f8000
0f8000
1f0000
1f0000
1f7c00
1fff00
3f9f00
3f0f80
3e0f80
7e0f80
7c0f80
7c1f80
fc1f80
f81f00
f81f00
f83e00
f83e00
787c00
7df000
1fe000
ENDCHAR
STARTCHAR c
ENCODING 99
SWIDTH 537 0
DWIDTH 17 0
BBX 16 16 0 0
BITMAP
03fc
0fce
1f0f
3f1f
7e1f
7e1f
fc0e
fc00
fc00
f800
f800
f804
fc0c
7e38
3ff0
0fc0
ENDCHAR
STARTCHAR d
ENCODING 100
SWIDTH 667 0
DWIDTH 22 0
BBX 22 25 0 0
BITMAP
00003c
0003fc
0000fc
0000fc
0000f8
0000f8
0000f8
0001f0
0001f0
01f1f0
07ffe0
1f8fe0
3f07e0
3e07e0
7e07c0
7e07c0
fc0fc0
fc0f80
fc0f80
f81f88
f81f98
fc3f30
7c6fe0
7fcfc0
1f8f80
ENDCHAR
STARTCHAR e
ENCODING 101
SWIDTH 519 0
DWIDTH 17 0
BBX 16 16 0 0
BITMAP
03fc
079e
1f0f
3e0f
3e1f
7c1f
7c3e
fcfc
ffe0
fc00
f800
f800
fc0c
7c38
3ff0
0fc0
ENDCHAR
STARTCHAR f
ENCODING 102
SWIDTH 389 0
DWIDTH 12 0
BBX 19 32 -1 -7
BITMAP
001f80
007dc0
00fbe0
01f3e0
01f3e0
01f1c0
03e000
03e000
03e000
3ffc00
3ffc00
07c000
07c000
0f8000
0f8000
0f8000
0f8000
1f0000
1f0000
1f0000
1f0000
3e0000
3e0000
3e0000
3e0000
7c0000
7c0000
7c0000
7c0000
f80000
f80000
f80000
ENDCHAR
STARTCHAR g
ENCODING 103
SWIDTH 611 0
DWIDTH 20 0
BBX 22 25 -2 -7
BITMAP
00003c
00007c
007fdc
01f3dc
03e1e0
07c1f0
07c1f0
07c1f0
07c3f0
07c3f0
03c7e0
07efc0
0f7e00
1c0000
3e0000
3ffc00
3fff00
1fff80
1fff80
7c1f80
f00780
f00780
f80f00
7f3e00
0ff000
ENDCHAR
STARTCHAR h
ENCODING 104
SWIDTH 685 0
DWIDTH 22 0
BBX 21 25 0 0
BITMAP
00f000
07f000
01f000
01f000
03e000
03e000
03e000
07c000
07c000
07c780
0f9fc0
0fbfe0
0ff3e0
1fc3e0
1f87e0
1f07c0
1f07c0
3e0fc0
3e0f80
3e0f98
7e1f18
7c1f70
7c1fe0
fc0fc0
fc0700
ENDCHAR
STARTCHAR i
ENCODING 105
SWIDTH 389 0
DWIDTH 12 0
BBX 10 25 1 0
BITMAP
0300
0780
0fc0
0fc0
0780
0300
0000
0000
0000
1f00
ff00
3f00
3f00
3e00
3e00
7e00
7c00
7c00
7c00
fcc0
f8c0
f980
fb00
fe00
7c00
ENDCHAR
STARTCHAR j
ENCODING 106
SWIDTH 370 0
DWIDTH 11 0
BBX 19 32 -7 -7
BITMAP
000180
0003c0
0007e0
0007e0
0003c0
000180
000000
000000
000000
0007c0
003fc0
000f80
000f80
001f80
001f00
001f00
001f00
003f00
003e00
003e00
003e00
007c00
007c00
007c00
007c00
00f800
70f800
f8f000
f9f000
79e000
7fc000
3f8000
ENDCHAR
STARTCHAR k
ENCODING 107
SWIDTH 648 0
DWIDTH 20 0
BBX 19 25 0 0
BITMAP
01f000
0ff000
03f000
03e000
03e000
07e000
07c000
07c000
07c000
0fc780
0f9fe0
0fbfe0
1fe3e0
1fc1e0
1f83c0
3f0780
3fff00
3ef800
7c3c00
7c3e00
7c3e60
7c3e60
f83fc0
f83f80
f80e00
ENDCHAR
STARTCHAR l
ENCODING 108
SWIDTH 389 0
DWIDTH 12 0
BBX 11 25 1 0
BITMAP
03e0
1fe0
07e0
07c0
07c0
07c0
0fc0
0f80
0f80
1f80
1f00
1f00
3f00
3e00
3e00
3e00
7e00
7c00
7c00
fc40
f8c0
f9c0
fb80
ff00
7c00
ENDCHAR
STARTCHAR m
ENCODING 109
SWIDTH 944 0
DWIDTH 30 0
BBX 29 16 0 0
BITMAP
0f870380
7f9f8fc0
1f7fdfe0
1fe7f3e0
1fc7e3e0
1f87c3e0
3f0fc7c0
3f0f87c0
3e0f87c0
7e1f07c0
7c1f0f98
7c1f0f98
7c1f0fb0
f83e0fe0
f83e0fc0
f83e0700
ENDCHAR
STARTCHAR n
ENCODING 110
SWIDTH 685 0
DWIDTH 22 0
BBX 21 16 0 0
BITMAP
0f8780
7f9fc0
0fbfe0
0ff3e0
0fc3e0
1fc3e0
1f87e0
1f07c0
3f0fc0
3e0f80
3e0f88
7e0f98
7c1f30
7c1fe0
f81fc0
f80f00
ENDCHAR
STARTCHAR o
ENCODING 111
SWIDTH 574 0
DWIDTH 19 0
BBX 18 16 0 0
BITMAP
03fc00
0fcf00
1f0f80
3f07c0
7e07c0
7e07c0
fc0fc0
fc0fc0
fc0fc0
fc0fc0
f81f80
f81f80
f83f00
7c3e00
3cf800
0fe000
ENDCHAR
STARTCHAR p
ENCODING 112
SWIDTH 648 0
DWIDTH 20 0
BBX 23 23 -4 -7
BITMAP
00f9f0
07fffc
01fc7c
01f87e
01f83e
01f03e
03f07e
03e07e
03e07e
07e07c
07e0fc
07c0f8
07e1f8
0fe3f0
0fbfc0
0f9f00
1f8000
1f0000
1f0000
1f0000
3f0000
ffc000
ffc000
ENDCHAR
STARTCHAR q
ENCODING 113
SWIDTH 630 0
DWIDTH 20 0
BBX 19 23 0 -7
BITMAP
01e060
07f9e0
1f8fe0
3f0fc0
3e07c0
7e0fc0
7c0fc0
fc0f80
fc0f80
fc1f80
f81f00
f83f00
fc3f00
7c7f00
7ffe00
1f3e00
007e00
007c00
007c00
007c00
00fc00
03ff00
07ff00
ENDCHAR
STARTCHAR r
ENCODING 114
SWIDTH 519 0
DWIDTH 16 0
BBX 17 16 0 0
BITMAP
0f9f00
7fbf80
1f6f80
1fcf80
1f8f00
1f8000
3f0000
3f0000
3e0000
7e0000
7c0000
7c0000
7c0000
fc0000
f80000
f80000
ENDCHAR
STARTCHAR s
ENCODING 115
SWIDTH 481 0
DWIDTH 15 0
BBX 14 16 0 0
BITMAP
07f0
1f3c
1c3c
3c3c
3e3c
3f18
3fc0
1ff0
1ff0
07f8
71f8
f8f8
f878
f070
79e0
3fc0
ENDCHAR
STARTCHAR t
ENCODING 116
SWIDTH 407 0
DWIDTH 12 0
BBX 13 22 0 0
BITMAP
03e0
03e0
07c0
07c0
07c0
0f80
7ff8
7ff0
1f00
1f00
1f00
3e00
3e00
3e00
7e00
7c00
7c40
fcc0
f980
ff00
7e00
3800
ENDCHAR
STARTCHAR u
ENCODING 117
SWIDTH 685 0
DWIDTH 21 0
BBX 20 16 0 0
BITMAP
1f83e0
7f87e0
1f07c0
1f07c0
3f0fc0
3e0f80
3e0f80
7e1f80
7c1f00
7c3f00
7c3f30
f87e70
f9fee0
ffbfc0
7f3f80
3c1e00
ENDCHAR
STARTCHAR v
ENCODING 118
SWIDTH 556 0
DWIDTH 17 0
BBX 15 16 1 0
BITMAP
ff1c
ff3e
3f3e
3e1e
3e0e
7e06
7c06
7c0c
7c0c
f80c
f818
f838
f830
7ce0
7fc0
1f00
ENDCHAR
STARTCHAR w
ENCODING 119
SWIDTH 833 0
DWIDTH 27 0
BBX 25 16 1 0
BITMAP
ff07cf00
ff078f80
1f0f8f80
3e0f8780
3e0f8380
3e1f0300
7c1f0300
7c1f0300
7c3f0200
f83e0600
f87e0e00
f87e0c00
f8df1800
ff9ff000
7f1fe000
3c07c000
ENDCHAR
STARTCHAR x
ENCODING 120
SWIDTH 574 0
DWIDTH 19 0
BBX 21 16 -2 0
BITMAP
03e0f0
07e1f8
0ff378
1df670
19fc00
10f800
00f800
00f800
00f800
00fc00
01fc40
637cc0
f37fc0
fe3f80
fc3f00
701c00
ENDCHAR
STARTCHAR y
ENCODING 121
SWIDTH 519 0
DWIDTH 18 0
BBX 19 23 -2 -7
BITMAP
0781c0
0fc3e0
0fe3e0
1fe1e0
1be1c0
33f1c0
31f180
01f180
01f100
00fb00
00fa00
00fe00
00fc00
007c00
007800
007800
003000
006000
70c000
f9c000
fb8000
7f0000
3c0000
ENDCHAR
STARTCHAR z
ENCODING 122
SWIDTH 519 0
DWIDTH 16 0
BBX 15 16 0 0
BITMAP
0fc6
1ffe
3ffe
3ffc
63d8
6070
00e0
03c0
0780
0e00
1c06
3786
7ffc
fffc
cff8
c3e0
ENDCHAR
STARTCHAR braceleft
ENCODING 123
SWIDTH 407 0
DWIDTH 14 0
BBX 11 31 2 -5
BITMAP
00e0
0180
0380
0780
0700
0700
0f00
0f00
0e00
0e00
0e00
1e00
1c00
1c00
3800
e000
7000
3800
3800
7800
7800
7000
7000
7000
f000
e000
e000
e000
e000
6000
3000
ENDCHAR
STARTCHAR bar
ENCODING 124
SWIDTH 606 0
DWIDTH 20 0
BBX 3 25 9 0
BITMAP
e0
e0
e0
e0
e0
e0
e0
e0
e0
e0
e0
e0
e0
e0
e0
e0
e0
e0
e0
e0
e0
e0
e0
e0
e0
ENDCHAR
STARTCHAR braceright
ENCODING 125
SWIDTH 407 0
DWIDTH 14 0
BBX 11 31 -1 -5
BITMAP
0300
01c0
00e0
00e0
00e0
00e0
01e0
01e0
01c0
01c0
01c0
03c0
0380
0380
03e0
00c0
0380
0780
0700
0700
0f00
0e00
0e00
0e00
1e00
1c00
1c00
3c00
3800
7000
c000
ENDCHAR
STARTCHAR asciitilde
ENCODING 126
SWIDTH 606 0
DWIDTH 19 0
BBX 17 6 1 6
BITMAP
1e0300
3fc780
7fff80
ffff00
f1fe00
603c00
ENDCHAR
STARTCHAR nobreakspace
ENCODING 160
SWIDTH 287 0
DWIDTH 10 0
BBX 1 1 1 0
BITMAP
00
ENDCHAR
STARTCHAR Aogonek
ENCODING 161
SWIDTH 741 0
DWIDTH 24 0
BBX 27 30 -3 -5
BITMAP
00006000
0000f000
0001f000
0001f000
0003f000
0003f000
0007f800
000ff800
000df800
001df800
0019f800
0038fc00
0070fc00
0070fc00
00e0fc00
00e0fc00
01fffe00
01fffe00
03807e00
07007e00
0f007e00
0e003f00
3e003f00
ffc3ffe0
ffc3ffe0
00060000
000c0000
00198000
001f0000
000e0000
ENDCHAR
STARTCHAR breve
ENCODING 162
SWIDTH 333 0
DWIDTH 12 0
BBX 11 6 0 17
BITMAP
c060
c060
e0c0
7fc0
7f80
1e00
ENDCHAR
STARTCHAR Lstroke
ENCODING 163
SWIDTH 704 0
DWIDTH 22 0
BBX 23 25 -1 0
BITMAP
07ffc0
07ffc0
00fc00
00fc00
00fc00
01f800
01f800
01f800
01f800
03f180
03ff80
03fc00
0ff000
7fe000
67e000
07e000
07e002
0fc006
0fc00e
0fc01e
0fc03e
1f807c
1f81fc
fffffc
fffffc
ENDCHAR
STARTCHAR currency
ENCODING 164
SWIDTH 574 0
DWIDTH 19 0
BBX 16 16 2 4
BITMAP
47e6
ffff
ffff
7c3e
781e
f00f
e007
e007
e007
e007
f00f
781e
7c3e
ffff
ffff
47e2
ENDCHAR
STARTCHAR Lcaron
ENCODING 165
SWIDTH 750 0
DWIDTH 25 0
BBX 27 29 -1 0
BITMAP
000001c0
000003e0
000007e0
000007e0
07ffc7e0
07ffc3c0
00fc00c0
00fc0180
00fc0300
01f80600
01f80c00
01f81800
01f80000
03f00000
03f00000
03f00000
03f00000
07e00000
07e00000
07e00000
07e00300
0fc00600
0fc00e00
0fc00e00
0fc01c00
1f803c00
1f80fc00
fffff800
fffff800
ENDCHAR
STARTCHAR Sacute
ENCODING 166
SWIDTH 685 0
DWIDTH 22 0
BBX 22 32 -1 0
BITMAP
000030
000078
0000f8
0001f0
0003c0
000300
000000
007e00
01ffcc
03c1fc
07807c
07003c
0f0038
0f0038
0f8018
0fe018
0ff800
0fff00
07ffc0
03ffe0
01ffe0
007ff0
300ff0
3003f0
3001f0
7000f0
7800f0
7801f0
7c01e0
ff03c0
c7ff00
c0fc00
ENDCHAR
STARTCHAR section
ENCODING 167
SWIDTH 500 0
DWIDTH 17 0
BBX 19 30 -2 -5
BITMAP
003f00
0071c0
00e1c0
01e3e0
01e3e0
01e1c0
01f080
01f800
00fc00
007c00
07fe00
1c3f00
1c1f00
3c0f80
3c0780
3e0780
3f0380
3f8380
1fc700
0ffe00
07f000
03f000
01f800
00f800
787800
f87800
f83800
f07000
70e000
1fc000
ENDCHAR
STARTCHAR diaeresis
ENCODING 168
SWIDTH 333 0
DWIDTH 14 0
BBX 12 5 3 18
BITMAP
70e0
f9f0
f9f0
f9f0
70e0
ENDCHAR
STARTCHAR Scaron
ENCODING 169
SWIDTH 685 0
DWIDTH 22 0
BBX 22 32 -1 0
BITMAP
001018
001870
000fe0
000fc0
000780
000700
000000
007e00
01ffcc
03c1fc
07807c
07003c
0f0038
0f0038
0f8018
0fe018
0ff800
0fff00
07ffc0
03ffe0
01ffe0
007ff0
300ff0
3003f0
3001f0
7000f0
7800f0
7801f0
7c01e0
ff03c0
c7ff00
c0fc00
ENDCHAR
STARTCHAR Scedilla
ENCODING 170
SWIDTH 685 0
DWIDTH 22 0
BBX 22 32 -1 -7
BITMAP
007e00
01ffcc
03c1fc
07807c
07003c
0f0038
0f0038
0f8018
0fe018
0ff800
0fff00
07ffc0
03ffe0
01ffe0
007ff0
300ff0
3003f0
3001f0
7000f0
7800f0
7801f0
7c01e0
ff03c0
c7ff00
c0fc00
001000
003000
007c00
000e00
018e00
00fc00
007800
ENDCHAR
STARTCHAR Tcaron
ENCODING 171
SWIDTH 722 0
DWIDTH 23 0
BBX 23 32 1 0
BITMAP
004060
0061c0
003f80
003f00
001e00
001c00
000000
3ffffe
3ffffe
7c7e3e
787e1e
707e0e
60fc0e
e0fc0c
c0fc0c
c0fc0c
c1f80c
01f800
01f800
01f800
03f000
03f000
03f000
07e000
07e000
07e000
07e000
0fc000
0fc000
0fc000
fff800
fff800
ENDCHAR
STARTCHAR Zacute
ENCODING 172
SWIDTH 704 0
DWIDTH 23 0
BBX 25 32 -1 0
BITMAP
00001800
00003c00
00007c00
0000f800
0001e000
00018000
00000000
07ffff80
07ffff00
07e07f00
0f80fe00
0f01fc00
0e03fc00
1c07f800
1807f000
180fe000
001fc000
003f8000
007f8000
007f0000
00fe0000
01fc0000
03f80000
07f80600
07f00c00
0fe01c00
1fc03c00
3f807800
7f81f800
7f07f800
fffff000
fffff000
ENDCHAR
STARTCHAR hyphen
ENCODING 173
SWIDTH 333 0
DWIDTH 11 0
BBX 9 4 0 6
BITMAP
7f80
7f80
ff00
ff00
ENDCHAR
STARTCHAR Zcaron
ENCODING 174
SWIDTH 704 0
DWIDTH 23 0
BBX 25 32 -1 0
BITMAP
00080c00
000c3800
0007f000
0007e000
0003c000
00038000
00000000
07ffff80
07ffff00
07e07f00
0f80fe00
0f01fc00
0e03fc00
1c07f800
1807f000
180fe000
001fc000
003f8000
007f8000
007f0000
00fe0000
01fc0000
03f80000
07f80600
07f00c00
0fe01c00
1fc03c00
3f807800
7f81f800
7f07f800
fffff000
fffff000
ENDCHAR
STARTCHAR Zabovedot
ENCODING 175
SWIDTH 704 0
DWIDTH 23 0
BBX 25 31 -1 0
BITMAP
00038000
0007c000
0007c000
0007c000
00038000
00000000
07ffff80
07ffff00
07e07f00
0f80fe00
0f01fc00
0e03fc00
1c07f800
1807f000
180fe000
001fc000
003f8000
007f8000
007f0000
00fe0000
01fc0000
03f80000
07f80600
07f00c00
0fe01c00
1fc03c00
3f807800
7f81f800
7f07f800
fffff000
fffff000
ENDCHAR
STARTCHAR degree
ENCODING 176
SWIDTH 400 0
DWIDTH 13 0
BBX 10 9 2 14
BITMAP
1e00
7f80
e1c0
c0c0
c0c0
c0c0
e1c0
7f80
1e00
ENDCHAR
STARTCHAR aogonek
ENCODING 177
SWIDTH 667 0
DWIDTH 21 0
BBX 20 21 0 -5
BITMAP
01e3e0
07fbe0
1f8fe0
3f0fc0
3e0fc0
7e0fc0
7c0f80
fc0f80
fc0f80
f81f80
f81f10
f83f30
fc3f70
7cffe0
7fdfc0
1f0f00
006000
00c000
019800
01f000
00e000
ENDCHAR
STARTCHAR ogonek
ENCODING 178
SWIDTH 333 0
DWIDTH 11 0
BBX 6 5 2 -5
BITMAP
30
60
cc
f8
70
ENDCHAR
STARTCHAR lstroke
ENCODING 179
SWIDTH 389 0
DWIDTH 12 0
BBX 12 25 1 0
BITMAP
03e0
1fe0
07e0
07c0
07c0
07c0
0fc0
0f80
0fb0
1ff0
1f80
ff00
df00
3e00
3e00
3e00
7e00
7c00
7c00
fc40
f8c0
f9c0
fb80
ff00
7c00
ENDCHAR
STARTCHAR acute
ENCODING 180
SWIDTH 333 0
DWIDTH 11 0
BBX 7 6 3 18
BITMAP
0c
1e
3e
7c
f0
c0
ENDCHAR
STARTCHAR lcaron
ENCODING 181
SWIDTH 630 0
DWIDTH 21 0
BBX 20 29 1 0
BITMAP
0000e0
0001f0
0003f0
0003f0
03e3f0
1fe1e0
07e060
07c0c0
07c180
07c300
0fc600
0f8c00
0f8000
1f8000
1f0000
1f0000
3f0000
3e0000
3e0000
3e0000
7e0000
7c0000
7c0000
fc4000
f8c000
f9c000
fb8000
ff0000
7c0000
ENDCHAR
STARTCHAR sacute
ENCODING 182
SWIDTH 481 0
DWIDTH 15 0
BBX 15 23 0 0
BITMAP
000c
001e
003e
007c
00f0
00c0
0000
07f0
1f3c
1c3c
3c3c
3e3c
3f18
3fc0
1ff0
1ff0
07f8
71f8
f8f8
f878
f070
79e0
3fc0
ENDCHAR
STARTCHAR caron
ENCODING 183
SWIDTH 333 0
DWIDTH 11 0
BBX 10 6 0 17
BITMAP
80c0
c380
7f00
7e00
3c00
3800
ENDCHAR
STARTCHAR cedilla
ENCODING 184
SWIDTH 333 0
DWIDTH 11 0
BBX 8 7 0 -7
BITMAP
08
18
3e
07
c7
7e
3c
ENDCHAR
STARTCHAR scaron
ENCODING 185
SWIDTH 481 0
DWIDTH 15 0
BBX 15 23 0 0
BITMAP
0406
061c
03f8
03f0
01e0
01c0
0000
07f0
1f3c
1c3c
3c3c
3e3c
3f18
3fc0
1ff0
1ff0
07f8
71f8
f8f8
f878
f070
79e0
3fc0
ENDCHAR
STARTCHAR scedilla
ENCODING 186
SWIDTH 481 0
DWIDTH 15 0
BBX 14 23 0 -7
BITMAP
07f0
1f3c
1c3c
3c3c
3e3c
3f18
3fc0
1ff0
1ff0
07f8
71f8
f8f8
f878
f070
79e0
3fc0
0100
0300
07c0
00e0
18e0
0fc0
0780
ENDCHAR
STARTCHAR tcaron
ENCODING 187
SWIDTH 570 0
DWIDTH 19 0
BBX 20 29 0 0
BITMAP
0000e0
0001f0
0003f0
0003f0
0003f0
0001e0
000060
03e0c0
03e180
07c300
07c600
07cc00
0f8000
7ff800
7ff000
1f0000
1f0000
1f0000
3e0000
3e0000
3e0000
7e0000
7c0000
7c4000
fcc000
f98000
ff0000
7e0000
380000
ENDCHAR
STARTCHAR zacute
ENCODING 188
SWIDTH 519 0
DWIDTH 16 0
BBX 15 23 0 0
BITMAP
000c
001e
003e
007c
00f0
00c0
0000
0fc6
1ffe
3ffe
3ffc
63d8
6070
00e0
03c0
0780
0e00
1c06
3786
7ffc
fffc
cff8
c3e0
ENDCHAR
STARTCHAR doubleacute
ENCODING 189
SWIDTH 333 0
DWIDTH 13 0
BBX 13 7 0 17
BITMAP
0c30
1e78
3cf0
38e0
71c0
e380
c300
ENDCHAR
STARTCHAR zcaron
ENCODING 190
SWIDTH 519 0
DWIDTH 16 0
BBX 15 23 0 0
BITMAP
0406
061c
03f8
03f0
01e0
01c0
0000
0fc6
1ffe
3ffe
3ffc
63d8
6070
00e0
03c0
0780
0e00
1c06
3786
7ffc
fffc
cff8
c3e0
ENDCHAR
STARTCHAR zabovedot
ENCODING 191
SWIDTH 519 0
DWIDTH 16 0
BBX 15 22 0 0
BITMAP
01c0
03e0
03e0
03e0
01c0
0000
0fc6
1ffe
3ffe
3ffc
63d8
6070
00e0
03c0
0780
0e00
1c06
3786
7ffc
fffc
cff8
c3e0
ENDCHAR
STARTCHAR Racute
ENCODING 192
SWIDTH 796 0
DWIDTH 26 0
BBX 26 32 -1 0
BITMAP
00001800
00003c00
00007c00
0000f800
0001e000
00018000
00000000
07fff800
07ffff00
00fc3f80
00fc1f80
00fc0fc0
01f80fc0
01f80fc0
01f80fc0
01f81fc0
03f01f80
03f03f00
03f07e00
03fff800
07ff8000
07e1e000
07e1f000
07e1f800
0fc1f800
0fc1f800
0fc1f800
1f81f8c0
1f81f8c0
1f80fd80
fff0ff00
fff07e00
ENDCHAR
STARTCHAR Aacute
ENCODING 193
SWIDTH 741 0
DWIDTH 24 0
BBX 27 32 -3 0
BITMAP
00000300
00000780
00000f80
00001f00
00003c00
00003000
00000000
00006000
0000f000
0001f000
0001f000
0003f000
0003f000
0007f800
000ff800
000df800
001df800
0019f800
0038fc00
0070fc00
0070fc00
00e0fc00
00e0fc00
01fffe00
01fffe00
03807e00
07007e00
0f007e00
0e003f00
3e003f00
ffc3ffe0
ffc3ffe0
ENDCHAR
STARTCHAR Acircumflex
ENCODING 194
SWIDTH 741 0
DWIDTH 24 0
BBX 27 32 -3 0
BITMAP
00001c00
00003c00
00007e00
0000fe00
0001c300
00030300
00000000
00006000
0000f000
0001f000
0001f000
0003f000
0003f000
0007f800
000ff800
000df800
001df800
0019f800
0038fc00
0070fc00
0070fc00
00e0fc00
00e0fc00
01fffe00
01fffe00
03807e00
07007e00
0f007e00
0e003f00
3e003f00
ffc3ffe0
ffc3ffe0
ENDCHAR
STARTCHAR Abreve
ENCODING 195
SWIDTH 741 0
DWIDTH 24 0
BBX 27 32 -3 0
BITMAP
00030180
00030180
00038300
0001ff00
0001fe00
00007800
00000000
00006000
0000f000
0001f000
0001f000
0003f000
0003f000
0007f800
000ff800
000df800
001df800
0019f800
0038fc00
0070fc00
0070fc00
00e0fc00
00e0fc00
01fffe00
01fffe00
03807e00
07007e00
0f007e00
0e003f00
3e003f00
ffc3ffe0
ffc3ffe0
ENDCHAR
STARTCHAR Adiaeresis
ENCODING 196
SWIDTH 741 0
DWIDTH 24 0
BBX 27 32 -3 0
BITMAP
00070e00
000f9f00
000f9f00
000f9f00
00070e00
00000000
00000000
00006000
0000f000
0001f000
0001f000
0003f000
0003f000
0007f800
000ff800
000df800
001df800
0019f800
0038fc00
0070fc00
0070fc00
00e0fc00
00e0fc00
01fffe00
01fffe00
03807e00
07007e00
0f007e00
0e003f00
3e003f00
ffc3ffe0
ffc3ffe0
ENDCHAR
STARTCHAR Lacute
ENCODING 197
SWIDTH 704 0
DWIDTH 22 0
BBX 24 32 -1 0
BITMAP
0000c0
0001e0
0003e0
0007c0
000f00
000c00
000000
07ffc0
07ffc0
00fc00
00fc00
00fc00
01f800
01f800
01f800
01f800
03f000
03f000
03f000
03f000
07e000
07e000
07e000
07e003
0fc006
0fc00e
0fc00e
0fc01c
1f803c
1f80fc
fffff8
fffff8
ENDCHAR
STARTCHAR Cacute
ENCODING 198
SWIDTH 759 0
DWIDTH 24 0
BBX 24 32 1 0
BITMAP
00000c
00001e
00003e
00007c
0000f0
0000c0
000000
001f81
00ffe3
01f877
07e01f
0fc01e
1f800e
3f800e
3f000e
7f000c
7f000c
7e0000
fe0000
fe0000
fe0000
fc0000
fc0000
fc0000
fc0000
fc0018
7e0030
7e0070
3f00e0
1fc3c0
0fff80
01fe00
ENDCHAR
STARTCHAR Ccedilla
ENCODING 199
SWIDTH 759 0
DWIDTH 24 0
BBX 24 32 0 -7
BITMAP
001f80
00ffe3
01f877
07e01f
0fc01e
1f800e
3f800e
3f000e
7f000e
7f000c
7e0000
fe0000
fe0000
fe0000
fc0000
fc0000
fc0000
fc0000
fc0018
7e0030
7e0070
3f00e0
1fc3c0
0fff80
00fe00
004000
00c000
01f000
003800
063800
03f000
01e000
ENDCHAR
STARTCHAR Ccaron
ENCODING 200
SWIDTH 759 0
DWIDTH 24 0
BBX 24 32 1 0
BITMAP
000406
00061c
0003f8
0003f0
0001e0
0001c0
000000
001f81
00ffe3
01f877
07e01f
0fc01e
1f800e
3f800e
3f000e
7f000c
7f000c
7e0000
fe0000
fe0000
fe0000
fc0000
fc0000
fc0000
fc0000
fc0018
7e0030
7e0070
3f00e0
1fc3c0
0fff80
01fe00
ENDCHAR
STARTCHAR Eacute
ENCODING 201
SWIDTH 741 0
DWIDTH 24 0
BBX 26 32 -1 0
BITMAP
00000c00
00001e00
00003e00
00007c00
0000f000
0000c000
00000000
07ffffc0
07ffffc0
00fc0fc0
00fc0780
00fc0380
01f80380
01f80380
01f83300
01f87300
03f06000
03f1e000
03ffe000
03ffe000
07e3c000
07e1c000
07e1c000
07e1c300
0fc18700
0fc18600
0fc00e00
0fc01e00
1f803c00
3f80fc00
fffffc00
fffffc00
ENDCHAR
STARTCHAR Eogonek
ENCODING 202
SWIDTH 741 0
DWIDTH 24 0
BBX 26 30 -1 -5
BITMAP
07ffffc0
07ffffc0
00fc0fc0
00fc0780
00fc0380
01f80380
01f80380
01f83300
01f87300
03f06000
03f1e000
03ffe000
03ffe000
07e3c000
07e1c000
07e1c000
07e1c300
0fc18700
0fc18600
0fc00e00
0fc01e00
0f803c00
1f80fc00
fffffc00
fffffc00
000c0000
00180000
00330000
003e0000
001c0000
ENDCHAR
STARTCHAR Ediaeresis
ENCODING 203
SWIDTH 741 0
DWIDTH 24 0
BBX 26 32 -1 0
BITMAP
00070e00
000f9f00
000f9f00
000f9f00
00070e00
00000000
00000000
07ffffc0
07ffffc0
00fc0fc0
00fc0780
00fc0380
01f80380
01f80380
01f83300
01f87300
03f06000
03f1e000
03ffe000
03ffe000
07e3c000
07e1c000
07e1c000
07e1c300
0fc18700
0fc18600
0fc00e00
0fc01e00
1f803c00
3f80fc00
fffffc00
fffffc00
ENDCHAR
STARTCHAR Ecaron
ENCODING 204
SWIDTH 741 0
DWIDTH 24 0
BBX 26 32 -1 0
BITMAP
00040600
00061c00
0003f800
0003f000
0001e000
0001c000
00000000
07ffffc0
07ffffc0
00fc0fc0
00fc0780
00fc0380
01f80380
01f80380
01f83300
01f87300
03f06000
03f1e000
03ffe000
03ffe000
07e3c000
07e1c000
07e1c000
07e1c300
0fc18700
0fc18600
0fc00e00
0fc01e00
0f803c00
1f80fc00
fffffc00
fffffc00
ENDCHAR
STARTCHAR Iacute
ENCODING 205
SWIDTH 444 0
DWIDTH 15 0
BBX 17 32 -1 0
BITMAP
000600
000f00
001f00
003e00
007800
006000
000000
07ff80
07ff80
00fc00
00fc00
00fc00
01f800
01f800
01f800
01f800
03f000
03f000
03f000
03f000
07e000
07e000
07e000
0fc000
0fc000
0fc000
0fc000
1f8000
1f8000
1fc000
fff000
fff000
ENDCHAR
STARTCHAR Icircumflex
ENCODING 206
SWIDTH 444 0
DWIDTH 15 0
BBX 17 32 -1 0
BITMAP
001c00
003c00
007e00
00fe00
01c300
030100
000000
07ff80
07ff80
00fc00
00fc00
00fc00
01f800
01f800
01f800
01f800
03f000
03f000
03f000
03f000
07e000
07e000
07e000
0fc000
0fc000
0fc000
0fc000
1f8000
1f8000
1fc000
fff000
fff000
ENDCHAR
STARTCHAR Dcaron
ENCODING 207
SWIDTH 833 0
DWIDTH 27 0
BBX 28 32 -2 0
BITMAP
00080c00
000c3800
0007f000
0007e000
0003c000
00038000
00000000
07fff800
07ffff00
00fe1f80
00fc07c0
00fc07e0
00fc03e0
01f803f0
01f803f0
01f803f0
01f003f0
03f003f0
03f007f0
03f007f0
07e007f0
07e007e0
07e00fe0
07e00fe0
0fc00fc0
0fc01fc0
0fc01f80
0fc03f00
1f807e00
1f81fc00
fffff000
ffff0000
ENDCHAR
STARTCHAR Dstroke
ENCODING 208
SWIDTH 833 0
DWIDTH 27 0
BBX 28 25 -2 0
BITMAP
07fff800
07ffff00
00fe1f80
00fc07c0
00fc07e0
00fc03e0
01f803f0
01f803f0
01f803f0
01f803f0
3fff83f0
3fff87f0
03f007f0
07e007f0
07e007e0
07e00fe0
07e00fe0
0fc00fc0
0fc01fc0
0fc01f80
0fc03f00
1f807e00
1f81fc00
fffff000
ffff0000
ENDCHAR
STARTCHAR Nacute
ENCODING 209
SWIDTH 852 0
DWIDTH 28 0
BBX 33 32 -2 0
BITMAP
0000018000
000003c000
000007c000
00000f8000
00001e0000
0000180000
0000000000
07fc01ff80
07fe01ff80
007e003c00
007f003800
007f003800
00ff803800
00df803000
00dfc03000
00cfc03000
01cfe07000
0187e06000
0187f06000
0183f0e000
0383f8c000
0301f8c000
0300fcc000
0700ffc000
06007f8000
06007f8000
06003f8000
0e003f8000
0e001f0000
1f001f0000
ffc00f0000
ffc00f0000
ENDCHAR
STARTCHAR Ncaron
ENCODING 210
SWIDTH 852 0
DWIDTH 28 0
BBX 33 32 -2 0
BITMAP
000080c000
0000c38000
00007f0000
00007e0000
00003c0000
0000380000
0000000000
07fc01ff80
07fe01ff80
007e003c00
007f003800
007f003800
00ff803800
00df803000
00dfc03000
00cfc03000
01cfe07000
0187e06000
0187f06000
0183f0e000
0383f8c000
0301f8c000
0300fcc000
0700ffc000
06007f8000
06007f8000
06003f8000
0e003f8000
0e001f0000
1f001f0000
ffc00f0000
ffc00f0000
ENDCHAR
STARTCHAR Oacute
ENCODING 211
SWIDTH 833 0
DWIDTH 27 0
BBX 26 32 0 0
BITMAP
00000c00
00001e00
00003e00
00007c00
0000f000
0000c000
00000000
000fc000
007ff800
01fc3e00
03f01f00
07e01f00
0fc00f80
1f800f80
3f800fc0
3f000fc0
7f000fc0
7f001fc0
fe001fc0
fe001fc0
fe001fc0
fc003f80
fc003f80
fc003f00
fc007f00
7c007e00
7c00fc00
7e01fc00
3e03f000
1f0fe000
07ff8000
00fc0000
ENDCHAR
STARTCHAR Ocircumflex
ENCODING 212
SWIDTH 833 0
DWIDTH 27 0
BBX 26 32 0 0
BITMAP
0001c000
0003c000
0007e000
000fe000
001c3000
00301000
00000000
000fc000
007ff800
01fc3e00
03f01f00
07e01f00
0fc00f80
1f800f80
3f800fc0
3f000fc0
7f000fc0
7f001fc0
fe001fc0
fe001fc0
fe001fc0
fc003f80
fc003f80
fc003f00
fc007f00
7c007e00
7c00fc00
7e01fc00
3e03f000
1f0fe000
07ff8000
00fc0000
ENDCHAR
STARTCHAR Odoubleacute
ENCODING 213
SWIDTH 833 0
DWIDTH 27 0
BBX 26 33 0 0
BITMAP
0000c300
0001e780
0003cf00
00038e00
00071c00
000e3800
000c3000
00000000
000fc000
007ff800
01fc3e00
03f01f00
07e01f00
0fc00f80
1f800f80
3f800fc0
3f000fc0
7f000fc0
7f001fc0
fe001fc0
fe001fc0
fe001fc0
fc003f80
fc003f80
fc003f00
fc007f00
7c007e00
7c00fc00
7e01fc00
3e03f000
1f0fe000
07ff8000
00fc0000
ENDCHAR
STARTCHAR Odiaeresis
ENCODING 214
SWIDTH 833 0
DWIDTH 27 0
BBX 26 32 0 0
BITMAP
001c3800
003e7c00
003e7c00
003e7c00
001c3800
00000000
00000000
000fc000
007ff800
01fc3e00
03f01f00
07e01f00
0fc00f80
1f800f80
3f800fc0
3f000fc0
7f000fc0
7f001fc0
fe001fc0
fe001fc0
fe001fc0
fc003f80
fc003f80
fc003f00
fc007f00
7c007e00
7c00fc00
7e01fc00
3e03f000
1f0fe000
07ff8000
00fc0000
ENDCHAR
STARTCHAR multiply
ENCODING 215
SWIDTH 606 0
DWIDTH 20 0
BBX 17 17 1 0
BITMAP
200200
700700
f80f80
7c1f00
3e3e00
1f7c00
0ff800
07f000
03e000
07f000
0ff800
1f7c00
3e3e00
7c1f00
f80f80
700700
200200
ENDCHAR
STARTCHAR Rcaron
ENCODING 216
SWIDTH 796 0
DWIDTH 26 0
BBX 26 32 -1 0
BITMAP
00080c00
000c3800
0007f000
0007e000
0003c000
00038000
00000000
07fff800
07ffff00
00fc3f80
00fc1f80
00fc0fc0
01f80fc0
01f80fc0
01f80fc0
01f81fc0
03f01f80
03f03f00
03f07e00
03fff800
07ff8000
07e1e000
07e1f000
07e1f800
0fc1f800
0fc1f800
0fc1f800
1f81f8c0
1f81f8c0
1f80fd80
fff0ff00
fff07e00
ENDCHAR
STARTCHAR Uring
ENCODING 217
SWIDTH 833 0
DWIDTH 27 0
BBX 27 32 2 0
BITMAP
00070000
000f8000
0018c000
0018c000
000f8000
00070000
00000000
7ff83fe0
7ff83fe0
1fc00f80
1fc00700
1f800600
1f800600
1f800e00
3f000c00
3f000c00
3f000c00
3f001c00
7e001800
7e001800
7e003800
7e003000
fc003000
fc003000
fc007000
fc006000
fc00e000
7c00c000
7e01c000
3f078000
1fff0000
07f80000
ENDCHAR
STARTCHAR Uacute
ENCODING 218
SWIDTH 833 0
DWIDTH 27 0
BBX 27 32 2 0
BITMAP
00003000
00007800
0000f800
0001f000
0003c000
00030000
00000000
7ff83fe0
7ff83fe0
1fc00f80
1fc00700
1f800600
1f800600
1f800e00
3f000c00
3f000c00
3f000c00
3f001c00
7e001800
7e001800
7e003800
7e003000
fc003000
fc003000
fc007000
fc006000
fc00e000
7c00c000
7e01c000
3f078000
1fff0000
07f80000
ENDCHAR
STARTCHAR Udoubleacute
ENCODING 219
SWIDTH 833 0
DWIDTH 27 0
BBX 27 33 2 0
BITMAP
00018600
0003cf00
00079e00
00071c00
000e3800
001c7000
00186000
00000000
7ff83fe0
7ff83fe0
1fc00f80
1fc00700
1f800600
1f800600
1f800e00
3f000c00
3f000c00
3f000c00
3f001c00
7e001800
7e001800
7e003800
7e003000
fc003000
fc003000
fc007000
fc006000
fc00e000
7c00c000
7e01c000
3f078000
1fff0000
07f80000
ENDCHAR
STARTCHAR Udiaeresis
ENCODING 220
SWIDTH 833 0
DWIDTH 27 0
BBX 27 32 2 0
BITMAP
001c3800
003e7c00
003e7c00
003e7c00
001c3800
00000000
00000000
7ff83fe0
7ff83fe0
1fc00f80
1fc00700
1f800600
1f800600
1f800e00
3f000c00
3f000c00
3f000c00
3f001c00
7e001800
7e001800
7e003800
7e003000
fc003000
fc003000
fc007000
fc006000
fc00e000
7c00c000
7e01c000
3f078000
1fff0000
07f80000
ENDCHAR
STARTCHAR Yacute
ENCODING 221
SWIDTH 704 0
DWIDTH 23 0
BBX 25 32 1 0
BITMAP
0000c000
0001e000
0003e000
0007c000
000f0000
000c0000
00000000
fff1ff80
fff1ff80
3f803e00
1f803800
1f807000
0fc07000
0fc0e000
0fc1c000
07e18000
07e38000
03f70000
03fe0000
03fc0000
01fc0000
01f80000
01f80000
03f00000
03f00000
03f00000
03f00000
07e00000
07e00000
07e00000
7ffe0000
7ffe0000
ENDCHAR
STARTCHAR Tcedilla
ENCODING 222
SWIDTH 722 0
DWIDTH 23 0
BBX 23 32 1 -7
BITMAP
3ffffe
3ffffe
7c7e3e
787e1e
707e0e
60fc0e
e0fc0c
c0fc0c
c0fc0c
c1f80c
01f800
01f800
01f800
03f000
03f000
03f000
07e000
07e000
07e000
07e000
0fc000
0fc000
0fc000
fff800
fff800
000800
001800
003e00
000700
00c700
007e00
003c00
ENDCHAR
STARTCHAR ssharp
ENCODING 223
SWIDTH 574 0
DWIDTH 19 0
BBX 20 31 -2 -6
BITMAP
003f80
007bc0
00f1e0
00e1f0
01e1f0
01e1f0
03e1f0
03c1e0
03c3e0
03c3c0
07cf00
07c700
07c380
0783c0
0783e0
0f83e0
0f83e0
0f83e0
0f83e0
0f03e0
1f07e0
1f07c0
1f07c0
1f0f80
1e7e00
3e0000
3e0000
7e0000
7c0000
7c0000
fc0000
ENDCHAR
STARTCHAR racute
ENCODING 224
SWIDTH 519 0
DWIDTH 16 0
BBX 17 23 0 0
BITMAP
000600
000f00
001f00
003e00
007800
006000
000000
0f9f00
7fbf80
1f6f80
1fcf80
1f8f00
1f8000
3f0000
3f0000
3e0000
7e0000
7c0000
7c0000
7c0000
fc0000
f80000
f80000
ENDCHAR
STARTCHAR aacute
ENCODING 225
SWIDTH 667 0
DWIDTH 21 0
BBX 20 23 0 0
BITMAP
000600
000f00
001f00
003e00
007800
006000
000000
01e3e0
07fbe0
1f8fe0
3f0fc0
3e0fc0
7e0fc0
7c0f80
fc0f80
fc0f80
f81f80
f81f10
f83f30
fc3f70
7cffe0
7fdfc0
1f0f00
ENDCHAR
STARTCHAR acircumflex
ENCODING 226
SWIDTH 667 0
DWIDTH 21 0
BBX 20 23 0 0
BITMAP
000e00
001e00
003f00
007f00
00e180
018080
000000
01e3e0
07fbe0
1f8fe0
3f0fc0
3e0fc0
7e0fc0
7c0f80
fc0f80
fc0f80
f81f80
f81f10
f83f30
fc3f70
7cffe0
7fdfc0
1f0f00
ENDCHAR
STARTCHAR abreve
ENCODING 227
SWIDTH 667 0
DWIDTH 21 0
BBX 20 23 0 0
BITMAP
0180c0
0180c0
01c180
00ff80
00ff00
003c00
000000
01e3e0
07fbe0
1f8fe0
3f0fc0
3e0fc0
7e0fc0
7c0f80
fc0f80
fc0f80
f81f80
f81f10
f83f30
fc3f70
7cffe0
7fdfc0
1f0f00
ENDCHAR
STARTCHAR adiaeresis
ENCODING 228
SWIDTH 667 0
DWIDTH 21 0
BBX 20 23 0 0
BITMAP
01c380
03e7c0
03e7c0
03e7c0
01c380
000000
000000
01e3e0
07fbe0
1f8fe0
3f0fc0
3e0fc0
7e0fc0
7c0f80
fc0f80
fc0f80
f81f80
f81f10
f83f30
fc3f70
7cffe0
7fdfc0
1f0f00
ENDCHAR
STARTCHAR lacute
ENCODING 229
SWIDTH 389 0
DWIDTH 12 0
BBX 14 32 1 0
BITMAP
0018
003c
007c
00f8
01e0
0180
0000
03e0
1fe0
07e0
07c0
07c0
07c0
0fc0
0f80
0f80
1f80
1f00
1f00
3f00
3e00
3e00
3e00
7e00
7c00
7c00
fc40
f8c0
f9c0
fb80
ff00
7c00
ENDCHAR
STARTCHAR cacute
ENCODING 230
SWIDTH 537 0
DWIDTH 17 0
BBX 16 23 0 0
BITMAP
0006
000f
001f
003e
0078
0060
0000
03fc
0fce
1f0f
3f1f
7e1f
7e1f
fc0e
fc00
fc00
f800
f800
f804
fc0c
7e38
3ff0
0fc0
ENDCHAR
STARTCHAR ccedilla
ENCODING 231
SWIDTH 537 0
DWIDTH 17 0
BBX 16 23 0 -7
BITMAP
03fc
0fce
1f0f
3f1f
7e1f
7e1f
fc0e
fc00
fc00
f800
f800
f804
fc0c
7e38
3ff0
0fc0
0200
0600
0f80
01c0
31c0
1f80
0f00
ENDCHAR
STARTCHAR ccaron
ENCODING 232
SWIDTH 537 0
DWIDTH 17 0
BBX 16 23 0 0
BITMAP
0203
030e
01fc
01f8
00f0
00e0
0000
03fc
0fce
1f0f
3f1f
7e1f
7e1f
fc0e
fc00
fc00
f800
f800
f804
fc0c
7e38
3ff0
0fc0
ENDCHAR
STARTCHAR eacute
ENCODING 233
SWIDTH 519 0
DWIDTH 17 0
BBX 16 23 0 0
BITMAP
000c
001e
003e
007c
00f0
00c0
0000
03fc
079e
1f0f
3e0f
3e1f
7c1f
7c3e
fcfc
ffe0
fc00
f800
f800
fc0c
7c38
3ff0
0fc0
ENDCHAR
STARTCHAR eogonek
ENCODING 234
SWIDTH 519 0
DWIDTH 17 0
BBX 16 21 0 -5
BITMAP
03fc
079e
1f0f
3e0f
3e1f
7c1f
7c3e
fcfc
ffe0
fc00
f800
f800
fc0c
7c38
3ff0
0fc0
0180
0300
0660
07c0
0380
ENDCHAR
STARTCHAR ediaeresis
ENCODING 235
SWIDTH 519 0
DWIDTH 17 0
BBX 16 23 0 0
BITMAP
070e
0f9f
0f9f
0f9f
070e
0000
0000
03fc
079e
1f0f
3e0f
3e1f
7c1f
7c3e
fcfc
ffe0
fc00
f800
f800
fc0c
7c38
3ff0
0fc0
ENDCHAR
STARTCHAR ecaron
ENCODING 236
SWIDTH 519 0
DWIDTH 17 0
BBX 16 23 0 0
BITMAP
0203
030e
01fc
01f8
00f0
00e0
0000
03fc
079e
1f0f
3e0f
3e1f
7c1f
7c3e
fcfc
ffe0
fc00
f800
f800
fc0c
7c38
3ff0
0fc0
ENDCHAR
STARTCHAR iacute
ENCODING 237
SWIDTH 389 0
DWIDTH 13 0
BBX 11 23 1 0
BITMAP
00c0
01e0
03e0
07c0
0f00
0c00
0000
0f80
7f80
1f80
1f00
3f00
3f00
3e00
3e00
7e00
7c00
7c40
fcc0
f980
fb80
ff00
7c00
ENDCHAR
STARTCHAR icircumflex
ENCODING 238
SWIDTH 389 0
DWIDTH 13 0
BBX 11 23 1 0
BITMAP
0380
0780
0fc0
1fc0
3860
6020
0000
0f80
7f80
1f80
1f00
3f00
3f00
3e00
3e00
7e00
7c00
7c40
fcc0
f980
fb80
ff00
7c00
ENDCHAR
STARTCHAR dcaron
ENCODING 239
SWIDTH 930 0
DWIDTH 31 0
BBX 31 29 0 0
BITMAP
0000001c
0000003e
0000007e
0000007e
00003c7e
0003fc3c
0000fc0c
0000fc18
0000f830
0000f860
0000f8c0
0001f180
0001f000
01f1f000
07ffe000
1f8fe000
3f07e000
3e07e000
7e07c000
7e07c000
fc0fc000
fc0f8000
fc0f8000
f81f8800
f81f9800
fc3f3000
7c6fe000
7fcfc000
1f8f8000
ENDCHAR
STARTCHAR dstroke
ENCODING 240
SWIDTH 750 0
DWIDTH 25 0
BBX 25 25 0 0
BITMAP
00003c00
0003fc00
0000fc00
0000fc00
0000f800
000fff80
000fff80
0001f000
0001f000
01f1f000
07ffe000
1f8fe000
3f07e000
3e07e000
7e07c000
7e07c000
fc0fc000
fc0f8000
fc0f8000
f81f8800
f81f9800
fc3f3000
7c6fe000
7fcfc000
1f8f8000
ENDCHAR
STARTCHAR nacute
ENCODING 241
SWIDTH 685 0
DWIDTH 22 0
BBX 21 23 0 0
BITMAP
000300
000780
000f80
001f00
003c00
003000
000000
0f8780
7f9fc0
0fbfe0
0ff3e0
0fc3e0
1fc3e0
1f87e0
1f07c0
3f0fc0
3e0f80
3e0f88
7e0f98
7c1f30
7c1fe0
f81fc0
f80f00
ENDCHAR
STARTCHAR ncaron
ENCODING 242
SWIDTH 685 0
DWIDTH 22 0
BBX 21 23 0 0
BITMAP
010180
018700
00fe00
00fc00
007800
007000
000000
0f8780
7f9fc0
0fbfe0
0ff3e0
0fc3e0
1fc3e0
1f87e0
1f07c0
3f0fc0
3e0f80
3e0f88
7e0f98
7c1f30
7c1fe0
f81fc0
f80f00
ENDCHAR
STARTCHAR oacute
ENCODING 243
SWIDTH 574 0
DWIDTH 19 0
BBX 18 23 0 0
BITMAP
000600
000f00
001f00
003e00
007800
006000
000000
03fc00
0fcf00
1f0f80
3f07c0
7e07c0
7e07c0
fc0fc0
fc0fc0
fc0fc0
fc0fc0
f81f80
f81f80
f83f00
7c3e00
3cf800
0fe000
ENDCHAR
STARTCHAR ocircumflex
ENCODING 244
SWIDTH 574 0
DWIDTH 19 0
BBX 18 23 0 0
BITMAP
001c00
003c00
007e00
00fe00
01c300
030100
000000
03fc00
0fcf00
1f0f80
3f07c0
7e07c0
7e07c0
fc0fc0
fc0fc0
fc0fc0
fc0fc0
f81f80
f81f80
f83f00
7c3e00
3cf800
0fe000
ENDCHAR
STARTCHAR odoubleacute
ENCODING 245
SWIDTH 574 0
DWIDTH 19 0
BBX 20 24 0 0
BITMAP
001860
003cf0
0079e0
0071c0
00e380
01c700
018600
000000
03fc00
0fcf00
1f0f80
3f07c0
7e07c0
7e07c0
fc0fc0
fc0fc0
fc0fc0
fc0fc0
f81f80
f81f80
f83f00
7c3e00
3cf800
0fe000
ENDCHAR
STARTCHAR odiaeresis
ENCODING 246
SWIDTH 574 0
DWIDTH 19 0
BBX 18 23 0 0
BITMAP
038700
07cf80
07cf80
07cf80
038700
000000
000000
03fc00
0fcf00
1f0f80
3f07c0
7e07c0
7e07c0
fc0fc0
fc0fc0
fc0fc0
fc0fc0
f81f80
f81f80
f83f00
7c3e00
3cf800
0fe000
ENDCHAR
STARTCHAR division
ENCODING 247
SWIDTH 606 0
DWIDTH 20 0
BBX 17 17 1 0
BITMAP
00c000
01e000
03f000
01e000
00c000
000000
000000
ffff80
ffff80
ffff80
000000
000000
00c000
01e000
03f000
01e000
00c000
ENDCHAR
STARTCHAR rcaron
ENCODING 248
SWIDTH 519 0
DWIDTH 16 0
BBX 17 23 0 0
BITMAP
020300
030e00
01fc00
01f800
00f000
00e000
000000
0f9f00
7fbf80
1f6f80
1fcf80
1f8f00
1f8000
3f0000
3f0000
3e0000
7e0000
7c0000
7c0000
7c0000
fc0000
f80000
f80000
ENDCHAR
STARTCHAR uring
ENCODING 249
SWIDTH 685 0
DWIDTH 21 0
BBX 20 23 0 0
BITMAP
007000
00f800
018c00
018c00
00f800
007000
000000
1f83e0
7f87e0
1f07c0
1f07c0
3f0fc0
3e0f80
3e0f80
7e1f80
7c1f00
7c3f00
7c3f30
f87e70
f9fee0
ffbfc0
7f3f80
3c1e00
ENDCHAR
STARTCHAR uacute
ENCODING 250
SWIDTH 685 0
DWIDTH 21 0
BBX 20 23 0 0
BITMAP
000600
000f00
001f00
003e00
007800
006000
000000
1f83e0
7f87e0
1f07c0
1f07c0
3f0fc0
3e0f80
3e0f80
7e1f80
7c1f00
7c3f00
7c3f30
f87e70
f9fee0
ffbfc0
7f3f80
3c1e00
ENDCHAR
STARTCHAR udoubleacute
ENCODING 251
SWIDTH 685 0
DWIDTH 21 0
BBX 20 24 0 0
BITMAP
001860
003cf0
0079e0
0071c0
00e380
01c700
018600
000000
1f83e0
7f87e0
1f07c0
1f07c0
3f0fc0
3e0f80
3e0f80
7e1f80
7c1f00
7c3f00
7c3f30
f87e70
f9fee0
ffbfc0
7f3f80
3c1e00
ENDCHAR
STARTCHAR udiaeresis
ENCODING 252
SWIDTH 685 0
DWIDTH 21 0
BBX 20 23 0 0
BITMAP
038700
07cf80
07cf80
07cf80
038700
000000
000000
1f83e0
7f87e0
1f07c0
1f07c0
3f0fc0
3e0f80
3e0f80
7e1f80
7c1f00
7c3f00
7c3f30
f87e70
f9fee0
ffbfc0
7f3f80
3c1e00
ENDCHAR
STARTCHAR yacute
ENCODING 253
SWIDTH 519 0
DWIDTH 17 0
BBX 19 30 -2 -7
BITMAP
000300
000780
000f80
001f00
003c00
003000
000000
0781c0
0fc3e0
0fe3e0
1fe1e0
1be1c0
33f1c0
31f180
01f180
01f100
00fb00
00fa00
00fe00
00fc00
007c00
007800
007800
003000
006000
70c000
f9c000
fb8000
7f0000
3c0000
ENDCHAR
STARTCHAR tcedilla
ENCODING 254
SWIDTH 407 0
DWIDTH 12 0
BBX 13 29 0 -7
BITMAP
03e0
03e0
07c0
07c0
07c0
0f80
7ff8
7ff0
1f00
1f00
1f00
3e00
3e00
3e00
7e00
7c00
7c40
fcc0
f980
ff00
7e00
3800
0100
0300
07c0
00e0
18e0
0fc0
0780
ENDCHAR
STARTCHAR abovedot
ENCODING 255
SWIDTH 333 0
DWIDTH 11 0
BBX 5 5 3 18
BITMAP
70
f8
f8
f8
70
ENDCHAR
ENDFONT
